<svg width="14" height="13" viewBox="0 0 14 13" fill="none" xmlns="http://www.w3.org/2000/svg">
<path d="M12.4999 7.125H7.91658V11.5C7.91658 11.7321 7.82001 11.9546 7.6481 12.1187C7.47619 12.2828 7.24303 12.375 6.99992 12.375C6.7568 12.375 6.52365 12.2828 6.35174 12.1187C6.17983 11.9546 6.08325 11.7321 6.08325 11.5V7.125H1.49992C1.2568 7.125 1.02365 7.03281 0.851738 6.86872C0.679829 6.70462 0.583252 6.48206 0.583252 6.25C0.583252 6.01794 0.679829 5.79538 0.851738 5.63128C1.02365 5.46719 1.2568 5.375 1.49992 5.375H6.08325V1C6.08325 0.767936 6.17983 0.545376 6.35174 0.381281C6.52365 0.217187 6.7568 0.125 6.99992 0.125C7.24303 0.125 7.47619 0.217187 7.6481 0.381281C7.82001 0.545376 7.91658 0.767936 7.91658 1V5.375H12.4999C12.743 5.375 12.9762 5.46719 13.1481 5.63128C13.32 5.79538 13.4166 6.01794 13.4166 6.25C13.4166 6.48206 13.32 6.70462 13.1481 6.86872C12.9762 7.03281 12.743 7.125 12.4999 7.125Z" fill="white"/>
</svg>
